<?xml version="1.0" encoding="utf-8"?>
<!-- Generator: Adobe Illustrator 18.1.1, SVG Export Plug-In . SVG Version: 6.00 Build 0)  -->
<!DOCTYPE svg PUBLIC "-//W3C//DTD SVG 1.1//EN" "http://www.w3.org/Graphics/SVG/1.1/DTD/svg11.dtd">
<svg version="1.1" id="Layer_1" xmlns="http://www.w3.org/2000/svg" xmlns:xlink="http://www.w3.org/1999/xlink" x="0px" y="0px"
	 viewBox="0 11.6 32 8.8" enable-background="new 0 11.6 32 8.8" xml:space="preserve">
<g>
	<path fill="#DA6141" d="M0.2,18.6l0.4-0.5c0.2-0.3,0.5-0.4,0.9-0.2c0.3,0.1,0.8,0.5,1.6,0.5c0.6,0,0.9-0.3,0.9-0.6
		c0-1.2-3.7-1-3.7-3.7c0-1.5,1.3-2.6,3-2.6c1,0,1.9,0.3,2.3,0.6c0.3,0.3,0.4,0.5,0.2,0.9l-0.3,0.6c-0.2,0.5-0.6,0.4-0.9,0.2
		c-0.4-0.2-0.8-0.4-1.3-0.4c-0.7,0-1,0.3-1,0.6c0,1.2,3.7,1,3.7,3.6c0,1.4-1.1,2.7-3,2.7c-1.2,0-2.3-0.5-2.7-0.9
		C0.1,19.3-0.1,19.1,0.2,18.6z"/>
	<path fill="#DA6141" d="M6.9,15.8H6.7c-0.4,0-0.6-0.2-0.6-0.7v-0.3c0-0.4,0.2-0.7,0.7-0.7H7v-1.1c0-0.4,0.2-0.7,0.7-0.7h0.7
		c0.4,0,0.7,0.2,0.7,0.7v1.1h0.6c0.4,0,0.7,0.2,0.7,0.7v0.3c0,0.4-0.2,0.7-0.6,0.7H9v1.8c0,0.5,0.3,0.7,0.7,0.8
		c0.5,0.1,0.7,0.2,0.7,0.7v0.5c0,0.5-0.3,0.7-0.9,0.7c-0.9,0-2.6-0.4-2.6-2.2L6.9,15.8L6.9,15.8z"/>
	<path fill="#DA6141" d="M17.9,14.8c0-0.4,0.2-0.7,0.7-0.7h0.7c0.4,0,0.7,0.2,0.7,0.7v0.4c0,0.2,0,0.4,0,0.4h0
		c0.2-0.6,0.9-1.5,1.6-1.5c0.4,0,0.6,0.2,0.6,0.7v0.7c0,0.4-0.2,0.7-0.7,0.7c-1,0-1.5,0.8-1.5,1.8v1.7c0,0.4-0.2,0.7-0.7,0.7h-0.8
		c-0.4,0-0.7-0.2-0.7-0.7L17.9,14.8L17.9,14.8z"/>
	<path fill="#DA6141" d="M22.5,14.8c0-0.4,0.2-0.6,0.7-0.6h0.7c0.4,0,0.6,0.2,0.6,0.7v0.1c0,0.1,0,0.2,0,0.2h0c0.3-0.4,0.9-1,1.8-1
		c0.8,0,1.4,0.3,1.7,1h0c0.3-0.5,1-1,2-1c1.1,0,2,0.6,2,2.3v3.3c0,0.4-0.2,0.7-0.7,0.7h-0.8c-0.4,0-0.7-0.2-0.7-0.7v-3
		c0-0.4-0.1-0.8-0.5-0.8c-0.9,0-1.2,0.9-1.2,1.8v1.9c0,0.4-0.2,0.7-0.7,0.7h-0.8c-0.4,0-0.7-0.2-0.7-0.7v-3c0-0.4-0.1-0.8-0.5-0.8
		c-1,0-1.2,1-1.2,1.8v1.9c0,0.4-0.2,0.7-0.7,0.7h-0.7c-0.4,0-0.7-0.2-0.7-0.7V14.8z"/>
	<path fill="#DA6141" d="M14,13.9c-1.9,0-3.5,1.3-3.5,3.2c0,1.9,1.6,3.2,3.5,3.2c1.9,0,3.5-1.3,3.5-3.2C17.5,15.2,16,13.9,14,13.9z
		 M15.8,17.3l-2.8,2c0,0,0,0-0.1,0c0,0,0,0,0,0c0,0,0-0.1,0-0.1l0.9-1.5l-1.5-0.5c0,0,0,0-0.1-0.1c0,0,0-0.1,0-0.1l2.9-2.2
		c0,0,0.1,0,0.1,0c0,0,0,0.1,0,0.1l-1,1.6l1.5,0.5C15.8,17.2,15.8,17.2,15.8,17.3C15.9,17.3,15.8,17.3,15.8,17.3z"/>
</g>
</svg>
